<?xml  version="1.0" encoding="UTF-8"?>
<!DOCTYPE svg PUBLIC "-//W3C//DTD SVG 1.0//EN" "http://www.w3.org/TR/2001/REC-SVG-20010904/DTD/svg10.dtd" >
<svg xmlns="http://www.w3.org/2000/svg" >
<metadata>
<version>1.0</version>
<id><![CDATA[Proxima N W01 At X Cd Xbd It]]></id>
<vendor>Monotype Imaging Inc.</vendor>
<credits>
<name>Fonts.com WebFonts</name>
<URL>http://webfonts.fonts.com</URL>
<role>Home of the Web fonts</role>
</credits>
<license>
<URL>http://webfonts.fonts.com/Legal</URL>
</license>
<copyright><![CDATA[Copyright (c) Mark Simonson, 2005. All rights reserved.]]></copyright>
<trademark><![CDATA[Proxima Nova is a trademark of Mark Simonson.]]></trademark>
<licensee>
<name></name>
</licensee>
</metadata>
<defs >
<font horiz-adv-x="405" id="4027a5ad-068a-40ed-a897-d903472c882b">
<font-face font-family="" panose-1="2 0 5 6 3 0 0 2 0 4" ascent="741" descent="-259" units-per-em="1000" alphabetic="0">
</font-face>
<missing-glyph horiz-adv-x="0" />

<glyph unicode="&#xA;" />
<glyph unicode="&#xD;" horiz-adv-x="0" />
<glyph unicode=" " horiz-adv-x="155" />
<glyph unicode="!" horiz-adv-x="260" d="M64 222L141 667H304L184 222H64ZM82 -12Q50 -12 28 11T5 66Q5 85 12 101T32 130T62 150T98 158Q130 158 152 135T175 80Q175 61 168 45T147 16T118 -4T82 -12Z"  />
<glyph unicode="&quot;" horiz-adv-x="415" d="M113 370Q114 427 116 475Q117 495 117 515T118 551T119 578T120 593Q120 629 144 653T203 677Q229 677 248 659T267 612Q267 603 264 594T259 581Q258 578 254 567T243 541T228 507T212 469Q193 424 170 370H113ZM300 370Q301 427 303 475Q304 495 304 515T305 551T306 578T307 593Q308 629 332 653T391 677Q417 677 435 659T454 612Q454 603 452 594T447 581Q445 578 441 567T430 541T416 507T400 469Q382 424 358 370H300Z"  />
<glyph unicode="#" horiz-adv-x="471" d="M132 0L210 168H150L75 0H-24L53 168H-2L36 253H91L164 413H108L145 498H202L278 667H377L301 498H359L434 667H533L457 498H512L475 413H419L345 253H404L366 168H306L231 0H132ZM320 413H262L190 253H247L320 413Z"  />
<glyph unicode="$" horiz-adv-x="412" d="M106 -6Q64 2 30 21T-25 68L59 180Q77 154 106 138T164 122Q191 122 210 141T229 192Q229 211 218 227T189 260T151 295T113 336T84 387T72 451Q72 493 86 531T125 599T184 649T258 675L279 768H379L357 670Q387 662 414 647T462 609L383 498Q366 519 342 531T291 544Q262 544 247 525T232 481Q232 462 243 446T272 413T309 377T347 336T375 285T387 221Q387 179 374 141T338 72T281 20T206 -8L186 -100H86L106 -6Z"  />
<glyph unicode="%" horiz-adv-x="596" d="M76 0L504 667H560L131 0H76ZM405 -12Q376 -12 354 -2T317 25T295 65T287 114Q287 157 300 195T335 261T385 305T445 321Q473 321 495 311T532 284T555 244T563 195Q563 151 550 114T515 48T465 4T405 -12ZM411 70Q422 70 433 79T454 105T470 142T476 186Q476 239 439 239Q428 239 417 230T396 204T380 167T374 123Q374 70 411 70ZM189 344Q160 344 138 354T101 381T79 421T71 470Q71 513 84 551T119 617T169 661T229 677Q257 677 279 667T316 640T339 600T347 551Q347 507 334 470T299 404T249 360T189 344ZM195 426Q206 426 217 435T238 461T254 498T260 542Q260 595 223 595Q212 595 201 586T180 560T164 523T158 479Q158 426 195 426Z"  />
<glyph unicode="&amp;" horiz-adv-x="471" d="M282 0Q279 6 277 12T271 24Q243 7 214 -2T152 -12Q84 -12 42 27T0 141Q0 189 13 225T48 290T97 340T155 380Q150 405 148 428T145 472Q145 515 159 552T197 617T252 661T318 677Q376 677 411 643T447 544Q447 504 433 474T396 421T343 378T284 340Q288 327 292 315T301 289Q306 274 310 260T320 232Q334 258 347 284T371 335L467 277Q444 229 419 188T366 112Q377 86 389 59T416 0H282ZM186 94Q209 94 235 115Q226 137 219 158T204 201Q198 218 193 234T183 268Q162 247 150 222T137 164Q137 136 150 115T186 94ZM262 470Q262 463 262 457T263 443Q293 463 312 486T331 542Q331 565 325 572T308 580Q299 580 291 571T276 546T266 511T262 470Z"  />
<glyph unicode="&apos;" horiz-adv-x="229" d="M113 370Q114 427 116 475Q117 495 117 515T118 551T119 578T120 593Q120 629 144 653T203 677Q229 677 248 659T267 612Q267 603 264 594T259 581Q258 578 254 567T243 541T228 507T212 469Q193 424 170 370H113Z"  />
<glyph unicode="(" horiz-adv-x="282" d="M65 -199Q46 -145 35 -81T24 50Q24 234 87 391T260 685L349 631Q307 561 273 482T214 320T177 151T163 -16Q163 -27 163 -45T165 -84T168 -126T172 -164L65 -199Z"  />
<glyph unicode=")" horiz-adv-x="282" d="M217 685Q236 631 247 567T258 436Q258 251 195 94T22 -199L-67 -145Q-25 -75 9 4T68 166T105 335T119 502Q119 512 119 530T117 570T113 612T109 650L217 685Z"  />
<glyph unicode="*" horiz-adv-x="329" d="M157 363L186 476L82 428L63 488L170 526L84 585L130 637L208 570L227 677H294L263 564L368 612L387 552L281 514L366 455L320 403L242 470L224 363H157Z"  />
<glyph unicode="+" horiz-adv-x="385" d="M249 296L218 154H127L159 296H40L59 379H177L207 513H297L268 379H386L368 296H249Z"  />
<glyph unicode="&#x2c;" horiz-adv-x="262" d="M181 73Q181 44 170 14T138 -43T90 -94T29 -132L-18 -83Q9 -71 39 -48T82 1Q80 0 77 0T71 0Q45 0 26 17T7 68Q7 87 15 103T36 132T65 151T100 158Q132 158 156 137T181 73Z"  />
<glyph unicode="-" horiz-adv-x="244" d="M17 185L42 299H226L201 185H17Z"  />
<glyph unicode="." horiz-adv-x="259" d="M84 -12Q52 -12 30 11T7 66Q7 104 34 131T99 158Q131 158 153 135T176 80Q176 42 149 15T84 -12Z"  />
<glyph unicode="/" horiz-adv-x="241" d="M-60 -20L243 687H340L36 -20H-60Z"  />
<glyph unicode="0" horiz-adv-x="474" d="M202 -12Q163 -12 131 2T76 45T40 116T27 214Q27 269 37 324T65 431T108 528T165 606T233 658T311 677Q350 677 382 663T437 620T472 549T485 452Q485 369 464 287T405 138T315 30T202 -12ZM216 122Q234 122 250 142T280 195T304 268T322 347T334 422T338 478Q338 507 330 525T297 543Q278 543 262 523T233 470T209 397T191 318T179 244T175 188Q175 159 183 141T216 122Z"  />
<glyph unicode="1" horiz-adv-x="377" d="M125 0L229 473L120 381L54 472L292 667H423L276 0H125Z"  />
<glyph unicode="2" horiz-adv-x="466" d="M-18 0L16 151Q95 220 154 271T254 362T314 430T334 486Q334 512 318 527T272 543Q242 543 216 531T160 485L87 584Q125 626 175 651T288 677Q332 677 369 666T434 633T476 579T492 504Q492 458 475 418T423 336T336 244T214 132H413L384 0H-18Z"  />
<glyph unicode="3" horiz-adv-x="465" d="M205 -12Q169 -12 134 -3T68 23T16 65T-17 122L102 200Q116 162 143 142T205 122Q226 122 241 131T266 154T280 184T285 217Q285 246 265 259T218 272Q206 272 196 272T178 270L209 405Q212 405 219 405T235 404T251 404T262 404Q282 404 296 411T320 431T334 458T339 490Q339 517 320 530T268 543Q243 543 218 531T173 495L95 585Q132 625 181 651T293 677Q336 677 372 667T436 638T478 590T493 523Q493 486 480 454T446 398T397 359T341 338Q366 330 383 316T411 284T427 247T432 208Q432 162 415 122T367 52T295 5T205 -12Z"  />
<glyph unicode="4" horiz-adv-x="463" d="M193 0L222 133H-9L23 278L308 667H491L402 266H451L422 133H373L344 0H193ZM301 493L143 266H251L301 493Z"  />
<glyph unicode="5" horiz-adv-x="471" d="M204 -12Q120 -12 67 24T-11 121L105 200Q119 162 145 142T203 122Q222 122 238 132T267 160T286 199T293 246Q293 273 278 290T233 307Q208 307 190 296T154 264L51 301L132 667H507L478 535H254L222 386Q242 409 265 419T320 430Q379 430 415 388T452 268Q452 213 435 163T385 73T307 11T204 -12Z"  />
<glyph unicode="6" horiz-adv-x="466" d="M214 -12Q122 -12 73 46T24 213Q24 255 32 306T56 408T98 508T159 594T238 654T337 677Q392 677 435 655T501 592L403 491Q395 515 377 529T330 543Q308 543 289 530T253 494T224 444T202 386Q199 377 198 372T195 358Q218 393 250 413T318 433Q346 433 369 423T410 392T438 344T448 279Q448 227 432 175T386 82T313 14T214 -12ZM217 122Q235 122 249 135T272 168T286 210T291 250Q291 275 280 293T244 311Q221 311 205 294T175 253Q173 242 172 226T170 194Q170 161 181 142T217 122Z"  />
<glyph unicode="7" horiz-adv-x="420" d="M14 0L297 535H79L109 667H498L474 562L180 0H14Z"  />
<glyph unicode="8" horiz-adv-x="466" d="M209 -12Q108 -12 54 24T0 145Q0 175 9 206T38 266T88 318T160 355Q128 372 106 405T83 483Q83 526 101 562T150 623T219 663T299 677Q335 677 370 669T434 643T479 595T497 522Q497 487 486 456T454 401T407 359T347 334Q389 311 410 273T431 192Q431 148 415 111T370 46T300 4T209 -12ZM265 391Q279 396 293 404T318 424T336 454T343 495Q343 518 331 530T295 543Q265 543 247 517T228 455Q228 432 241 415T265 391ZM208 122Q223 122 236 129T259 150T276 182T282 222Q282 253 268 270T243 292Q228 288 213 279T185 255T164 221T156 176Q156 150 170 136T208 122Z"  />
<glyph unicode="9" horiz-adv-x="466" d="M291 678Q383 678 432 620T481 453Q481 411 473 360T449 258T407 158T346 72T267 12T168 -11Q113 -11 71 11T4 74L103 175Q111 151 129 137T176 123Q198 123 217 136T252 172T281 222T303 280Q306 289 307 294T311 308Q288 273 255 253T187 233Q160 233 136 243T95 274T67 322T57 387Q57 439 73 491T119 584T192 652T291 678ZM289 544Q271 544 257 531T234 498T219 456T214 416Q214 391 225 373T262 355Q285 355 300 372T330 413Q332 424 334 440T336 472Q336 505 325 524T289 544Z"  />
<glyph unicode=":" horiz-adv-x="258" d="M84 -12Q52 -12 30 11T7 66Q7 85 14 101T34 130T64 150T100 158Q132 158 154 135T177 80Q177 61 170 45T149 16T120 -4T84 -12ZM157 320Q125 320 103 343T80 398Q80 417 87 433T107 462T137 482T173 490Q205 490 227 467T250 412Q250 393 243 376T222 347T193 327T157 320Z"  />
<glyph unicode=";" horiz-adv-x="260" d="M181 73Q181 44 170 14T138 -43T90 -94T29 -132L-18 -83Q9 -71 39 -48T82 1Q80 0 77 0T71 0Q45 0 26 17T7 68Q7 87 15 103T36 132T65 151T100 158Q132 158 156 137T181 73ZM157 320Q125 320 103 343T80 398Q80 417 87 433T107 462T137 482T173 490Q205 490 227 467T250 412Q250 393 243 376T222 347T193 327T157 320Z"  />
<glyph unicode="&lt;" horiz-adv-x="385" d="M38 286L59 384L416 517L394 415L143 330L356 247L335 153L38 286Z"  />
<glyph unicode="=" horiz-adv-x="385" d="M60 386L78 469H405L387 386H60ZM19 199L37 282H364L346 199H19Z"  />
<glyph unicode="&gt;" horiz-adv-x="385" d="M8 153L31 255L282 338L68 423L89 517L387 384L365 286L8 153Z"  />
<glyph unicode="?" horiz-adv-x="331" d="M102 208Q98 219 96 236T93 268Q93 303 103 329T128 377T161 414T194 446T219 477T229 512Q229 528 220 539T191 551Q163 551 141 529L100 626Q133 653 169 665T241 677Q272 677 298 668T344 643T375 603T387 553Q387 518 375 490T343 439T303 396T262 357T231 319T218 278Q218 273 220 263T224 246L102 208ZM122 -12Q90 -12 68 11T45 66Q45 85 52 101T72 130T102 150T138 158Q170 158 192 135T215 80Q215 61 208 45T187 16T158 -4T122 -12Z"  />
<glyph unicode="@" horiz-adv-x="652" d="M295 -70Q236 -70 191 -50T116 7T71 97T55 215Q55 297 83 373T160 508T274 602T414 638Q462 638 503 622T574 574T620 499T637 398Q637 335 624 279T586 179T530 111T461 85Q426 85 402 102T370 151L368 159Q358 144 347 131T322 108T291 91T253 85Q235 85 218 91T187 112T165 152T156 215Q156 266 170 316T209 407T270 473T349 498Q380 498 397 481T422 436L432 484H552L501 243Q500 239 499 230T498 216Q498 196 504 186T526 176Q535 176 546 191T568 235T586 305T594 397Q594 494 545 546T411 598Q345 598 288 565T188 478T121 356T96 217Q96 166 107 121T143 42T207 -11T300 -31Q345 -31 380 -17T453 24L474 -7Q432 -37 389 -53T295 -70ZM317 180Q340 180 354 198T379 234L405 359Q401 375 394 389T369 403Q347 403 331 386T303 344T286 290T280 237Q280 211 288 196T317 180Z"  />
<glyph unicode="A" horiz-adv-x="454" d="M251 0L258 108H142L102 0H-57L233 667H407L402 0H251ZM287 501L189 241H270L287 501Z"  />
<glyph unicode="B" horiz-adv-x="477" d="M-7 0L140 667H330Q372 667 403 655T456 623T488 576T499 519Q499 487 489 455T461 398T416 355T358 333Q400 321 420 286T440 209Q440 173 429 136T395 69T335 19T249 0H-7ZM271 405Q287 405 299 412T320 430T333 456T338 486Q338 510 324 522T284 535H262L233 405H271ZM215 132Q247 132 267 158T288 222Q288 273 237 273H204L173 132H215Z"  />
<glyph unicode="C" horiz-adv-x="448" d="M217 -12Q123 -12 74 48T25 211Q25 250 32 300T54 402T92 503T149 592T224 654T321 678Q371 678 405 660T459 611T489 544T500 469L360 442Q359 463 357 481T349 514T335 536T313 544Q292 544 274 526T241 478T215 411T195 337T183 265T179 208Q179 162 190 142T224 122Q266 122 303 202L424 152Q389 75 340 32T217 -12Z"  />
<glyph unicode="D" horiz-adv-x="500" d="M-7 0L140 667H321Q357 667 390 653T449 610T490 539T506 441Q506 405 500 358T478 262T438 166T377 82T291 23T179 0H-7ZM173 132H206Q232 132 253 149T290 193T318 255T337 324T348 388T352 439Q352 490 335 512T293 535H262L173 132Z"  />
<glyph unicode="E" horiz-adv-x="392" d="M-7 0L140 667H454L424 535H262L233 405H389L360 273H204L173 132H336L307 0H-7Z"  />
<glyph unicode="F" horiz-adv-x="387" d="M-7 0L140 667H454L424 535H262L233 405H389L360 273H204L144 0H-7Z"  />
<glyph unicode="G" horiz-adv-x="474" d="M205 -12Q118 -12 72 48T25 211Q25 252 32 302T55 405T95 506T154 593T233 655T333 678Q375 678 404 663T453 622T481 562T491 489L365 458Q363 493 353 518T316 544Q296 544 278 527T244 482T217 418T197 345T184 272T179 208Q179 163 190 143T228 122Q243 122 256 132T280 160T299 198T313 241H236L266 374H484Q466 281 443 210T386 89T309 14T205 -12Z"  />
<glyph unicode="H" horiz-adv-x="508" d="M256 0L317 277H205L144 0H-7L140 667H291L234 409H346L403 667H554L407 0H256Z"  />
<glyph unicode="I" horiz-adv-x="245" d="M-7 0L140 667H291L144 0H-7Z"  />
<glyph unicode="J" horiz-adv-x="362" d="M92 -12Q55 -12 20 -3T-38 27L20 149Q31 135 47 129T78 122Q137 122 152 187L258 667H409L302 179Q279 79 230 34T92 -12Z"  />
<glyph unicode="K" horiz-adv-x="497" d="M286 0L238 240L177 154L144 0H-7L140 667H291L232 397L407 667H580L352 354L444 0H286Z"  />
<glyph unicode="L" horiz-adv-x="380" d="M-7 0L140 667H291L173 132H336L307 0H-7Z"  />
<glyph unicode="M" horiz-adv-x="645" d="M396 0L477 371L293 0H244L226 371L144 0H-7L140 667H326L342 348L502 667H692L545 0H396Z"  />
<glyph unicode="N" horiz-adv-x="508" d="M266 0L217 331L144 0H-7L140 667H291L333 352L403 667H554L407 0H266Z"  />
<glyph unicode="O" horiz-adv-x="500" d="M217 -12Q168 -12 132 5T72 53T37 123T25 211Q25 251 32 301T54 403T93 504T150 592T225 654T321 678Q370 678 406 661T466 613T501 541T513 453Q513 413 506 363T484 262T445 161T388 74T313 12T217 -12ZM224 122Q245 122 263 140T296 187T322 254T342 328T355 398T359 456Q359 495 349 519T313 544Q292 544 274 526T241 478T215 411T195 337T183 266T179 208Q179 170 189 146T224 122Z"  />
<glyph unicode="P" horiz-adv-x="469" d="M-7 0L140 667H326Q365 667 397 654T451 616T486 560T499 489Q499 440 484 394T436 313T356 256T244 234H195L144 0H-7ZM256 366Q277 366 293 375T320 400T336 434T342 474Q342 503 328 519T291 535H262L224 366H258H256Z"  />
<glyph unicode="Q" horiz-adv-x="500" d="M217 -12Q168 -12 132 5T72 53T37 123T25 211Q25 251 32 301T54 403T93 504T150 592T225 654T321 678Q370 678 406 661T466 613T501 541T513 453Q513 410 505 356T479 247T434 141T369 53L380 -15L269 -36L264 -6Q241 -12 217 -12ZM224 122Q235 122 243 126L227 225L318 241Q328 269 335 299T348 357T356 411T359 456Q359 495 349 519T313 544Q292 544 274 526T241 478T215 411T195 337T183 266T179 208Q179 170 189 146T224 122Z"  />
<glyph unicode="R" horiz-adv-x="485" d="M245 0L232 234H195L144 0H-7L140 667H327Q364 667 396 653T450 615T486 559T499 488Q499 448 488 411T459 344T419 292T374 261L403 0H245ZM257 366Q277 366 292 375T319 399T335 433T341 473Q341 505 327 520T291 535H262L224 366H258H257Z"  />
<glyph unicode="S" horiz-adv-x="416" d="M165 -12Q104 -12 53 10T-25 68L59 180Q77 154 106 138T164 122Q191 122 210 141T229 192Q229 211 218 227T189 260T151 295T113 336T84 387T72 451Q72 498 89 539T135 611T205 660T293 678Q340 678 386 661T462 609L383 498Q366 519 342 531T291 544Q262 544 247 525T232 481Q232 462 243 446T272 413T309 377T347 336T375 285T387 221Q387 174 371 132T326 58T256 7T165 -12Z"  />
<glyph unicode="T" horiz-adv-x="385" d="M63 0L181 535H82L111 667H460L431 535H332L214 0H63Z"  />
<glyph unicode="U" horiz-adv-x="508" d="M222 -12Q183 -12 149 0T89 36T49 93T34 168Q34 187 39 209L140 667H291L187 195Q186 190 185 183T184 170Q184 146 198 133T234 120Q257 120 273 137T299 195L403 667H554L452 204Q440 147 417 107T364 40T298 1T222 -12Z"  />
<glyph unicode="V" horiz-adv-x="454" d="M86 0L90 667H241L211 193L391 667H549L260 0H86Z"  />
<glyph unicode="W" horiz-adv-x="650" d="M319 0L357 388L223 0H71L100 667H252L210 263L357 667H474L444 263L580 667H736L470 0H319Z"  />
<glyph unicode="X" horiz-adv-x="473" d="M265 0L231 203L116 0H-58L175 348L97 667H257L283 475L388 667H562L341 333L423 0H265Z"  />
<glyph unicode="Y" horiz-adv-x="459" d="M100 0L160 272L87 667H241L261 416L392 667H558L311 272L251 0H100Z"  />
<glyph unicode="Z" horiz-adv-x="394" d="M-26 0L1 127L245 535H91L121 667H452L426 546L178 132H341L312 0H-26Z"  />
<glyph unicode="[" horiz-adv-x="216" d="M-61 -190L131 678H294L275 589H208L55 -101H122L101 -190H-61Z"  />
<glyph unicode="\" horiz-adv-x="241" d="M88 687H182V-20H88V687Z"  />
<glyph unicode="]" horiz-adv-x="216" d="M-78 -190L-59 -101H7L160 589H94L114 678H277L84 -190H-78Z"  />
<glyph unicode="^" horiz-adv-x="341" d="M248 333L242 560L136 333H38L215 667H313L341 333H248Z"  />
<glyph unicode="_" horiz-adv-x="279" d="M-85 -129L-65 -40H219L199 -129H-85Z"  />
<glyph unicode="`" horiz-adv-x="193" d="M178 556L101 700H215L262 556H178Z"  />
<glyph unicode="a" horiz-adv-x="434" d="M216 0L226 47Q209 20 180 4T119 -12Q71 -12 38 20T4 113Q4 153 15 187T48 248T97 289T160 304Q175 304 191 301T223 290T250 272T270 246L282 298Q285 313 285 327Q285 353 265 368T215 383Q192 383 167 375T114 347L87 445Q120 472 164 483T250 495Q287 495 319 487T375 463T413 422T427 364Q427 356 426 345T421 319L351 0H216ZM187 78Q204 78 218 87T242 115L255 174Q249 194 235 204T201 214Q186 214 175 206T156 186T145 158T141 127Q141 103 153 91T187 78Z"  />
<glyph unicode="b" horiz-adv-x="442" d="M233 -12Q197 -12 172 4T134 58L122 0H-13L133 667H269L216 428Q240 463 266 479T319 495Q431 495 431 335Q431 287 419 227T383 114T321 24T233 -12ZM200 108Q224 108 241 132T270 189T286 258T292 316Q292 375 248 375Q232 375 218 362T194 331L155 153Q159 132 171 120T200 108Z"  />
<glyph unicode="c" horiz-adv-x="358" d="M189 -12Q108 -12 61 36T13 176Q13 233 29 289T76 392T151 466T252 495Q294 495 330 481T386 445L324 344Q313 361 297 368T264 375Q238 375 218 358T183 314T160 255T152 191Q152 148 171 128T223 108Q256 108 280 132L299 25Q254 -12 189 -12Z"  />
<glyph unicode="d" horiz-adv-x="442" d="M208 495Q244 495 270 479T307 425L361 667H495L348 0H213L225 55Q202 20 176 4T122 -12Q10 -12 10 148Q10 196 22 256T58 369T120 459T208 495ZM241 375Q217 375 200 351T172 294T155 225T150 167Q150 108 193 108Q209 108 223 121T247 152L286 330Q282 351 270 363T241 375Z"  />
<glyph unicode="e" horiz-adv-x="420" d="M191 -12Q106 -12 60 37T13 178Q13 226 28 282T72 385T146 463T248 495Q290 495 320 483T370 447T399 393T408 323Q408 288 401 253T389 197H139Q136 182 136 168Q136 157 139 145T152 122T178 104T218 97Q241 97 261 107T299 134L343 49Q314 20 273 4T191 -12ZM283 291Q287 307 287 327Q287 354 273 370T237 386Q219 386 205 377T182 354T167 323T158 291H281H283Z"  />
<glyph unicode="f" horiz-adv-x="262" d="M3 0L84 366H41L67 483H109L117 517Q135 600 173 638T275 677Q299 677 320 673T357 661L316 557Q308 561 295 561Q263 561 252 517L244 483H303L277 366H219L138 0H3Z"  />
<glyph unicode="g" horiz-adv-x="442" d="M130 -196Q76 -196 32 -180T-38 -133L28 -32Q45 -55 70 -67T125 -80Q160 -80 181 -57T216 20L230 78Q209 42 182 26T127 10Q70 10 41 48T12 160Q12 190 16 226T31 300T56 373T93 435T143 478T207 495Q220 495 236 491T266 478T292 456T307 425L320 483H455L351 20Q337 -44 315 -85T264 -151T201 -186T130 -196ZM196 130Q212 130 226 143T251 175L285 330Q280 349 268 362T239 375Q216 375 200 354T173 304T157 242T152 189Q152 156 163 143T196 130Z"  />
<glyph unicode="h" horiz-adv-x="441" d="M211 0L284 330Q285 332 286 338T287 347Q287 375 260 375Q239 375 222 358T192 320L122 0H-14L133 667H269L215 424Q235 451 268 473T339 495Q385 495 409 471T434 410Q434 396 431 383L346 0H211Z"  />
<glyph unicode="i" horiz-adv-x="216" d="M179 532Q148 532 128 552T107 600Q107 622 115 639T137 667T167 685T198 691Q229 691 249 671T270 623Q270 601 262 584T240 556T210 538T179 532ZM-14 0L93 483H229L122 0H-14Z"  />
<glyph unicode="j" horiz-adv-x="216" d="M-54 -196Q-80 -196 -100 -190T-133 -171L-85 -70Q-79 -80 -63 -80Q-49 -80 -38 -68T-20 -27L93 483H229L115 -27Q106 -68 93 -99T61 -152T13 -185T-54 -196ZM179 532Q148 532 128 552T107 600Q107 622 115 639T137 667T167 685T198 691Q229 691 249 671T270 623Q270 601 262 584T240 556T210 538T179 532Z"  />
<glyph unicode="k" horiz-adv-x="424" d="M224 0L201 182L145 107L122 0H-14L133 667H269L185 289L319 483H470L311 269L370 0H224Z"  />
<glyph unicode="l" horiz-adv-x="246" d="M135 -12Q76 -12 42 10T8 80Q8 89 9 101T14 128L133 667H269L155 154Q154 149 154 143T153 132Q153 119 159 114T177 108Q189 108 199 116L197 3Q177 -12 135 -12Z"  />
<glyph unicode="m" horiz-adv-x="666" d="M436 0L509 330Q509 331 510 337T512 347Q512 375 484 375Q464 375 446 357T417 320L346 0H211L284 330Q285 332 286 337T287 348Q287 375 260 375Q239 375 221 357T192 320L122 0H-14L93 483H229L215 424Q236 453 269 474T339 495Q381 495 407 473T433 421V415Q455 448 490 471T564 495Q606 495 632 473T659 410Q659 402 658 395T655 383L571 0H436Z"  />
<glyph unicode="n" horiz-adv-x="441" d="M211 0L284 330Q285 332 286 338T287 347Q287 375 260 375Q239 375 222 358T192 320L122 0H-14L93 483H229L215 424Q235 451 268 473T339 495Q384 495 409 472T434 410Q434 405 433 396T431 383L346 0H211Z"  />
<glyph unicode="o" horiz-adv-x="434" d="M185 -12Q99 -12 56 38T13 175Q13 227 28 283T74 387T147 464T248 495Q333 495 376 445T420 308Q420 256 405 200T359 96T286 19T185 -12ZM192 108Q215 108 232 132T260 189T277 256T283 311Q283 347 272 361T240 375Q217 375 200 351T172 294T155 227T149 171Q149 136 160 122T192 108Z"  />
<glyph unicode="p" horiz-adv-x="442" d="M233 -12Q197 -12 172 4T134 58L81 -184H-54L93 483H229L216 428Q240 463 266 479T319 495Q431 495 431 335Q431 287 419 227T383 114T321 24T233 -12ZM200 108Q224 108 241 132T270 189T286 258T292 316Q292 375 248 375Q232 375 218 362T194 331L155 153Q159 132 171 120T200 108Z"  />
<glyph unicode="q" horiz-adv-x="442" d="M208 495Q244 495 270 479T307 425L320 483H454L307 -184H172L225 55Q202 20 176 4T122 -12Q10 -12 10 148Q10 196 22 256T58 369T120 459T208 495ZM241 375Q217 375 200 351T172 294T155 225T150 167Q150 108 193 108Q209 108 223 121T247 152L286 330Q282 351 270 363T241 375Z"  />
<glyph unicode="r" horiz-adv-x="295" d="M-14 0L93 483H229L215 424Q234 456 267 476T339 496L308 362Q297 368 280 368Q254 368 232 353T190 312L122 0H-14Z"  />
<glyph unicode="s" horiz-adv-x="364" d="M144 -12Q115 -12 88 -6T39 10T-1 34T-27 62L44 149Q58 128 85 111T144 94Q167 94 182 107T197 138Q197 151 186 161T157 182T121 205T84 233T56 272T44 326Q44 359 55 389T88 443T144 481T221 495Q266 495 309 477T381 426L312 341Q307 348 298 356T276 372T250 384T220 389Q199 389 187 378T174 350Q174 338 185 329T214 309T252 286T290 256T319 216T331 162Q331 128 318 97T281 41T223 3T144 -12Z"  />
<glyph unicode="t" horiz-adv-x="269" d="M151 -12Q25 -12 25 82Q25 93 26 103T30 128L84 366H40L66 483H110L139 615H274L245 483H303L277 366H219L172 154Q169 143 169 133Q169 108 194 108Q207 108 215 116L214 3Q204 -4 190 -8T151 -12Z"  />
<glyph unicode="u" horiz-adv-x="441" d="M229 483L156 153Q153 144 153 136Q153 108 180 108Q200 108 217 124T247 161L318 483H453L346 0H211L225 59Q205 32 172 10T101 -12Q56 -12 31 11T6 73Q6 78 7 87T9 100L93 483H229Z"  />
<glyph unicode="v" horiz-adv-x="408" d="M78 0L51 483H190L183 170L316 483H463L222 0H78Z"  />
<glyph unicode="w" horiz-adv-x="641" d="M330 0L332 299L203 0H61L54 483H190L178 182L302 483H429L425 182L549 483H693L472 0H330Z"  />
<glyph unicode="x" horiz-adv-x="395" d="M202 0L179 144L92 0H-55L112 243L57 483H195L215 341L297 483H443L281 243L342 0H202Z"  />
<glyph unicode="y" horiz-adv-x="441" d="M129 -196Q72 -196 27 -179T-39 -133L27 -32Q44 -55 70 -67T124 -80Q162 -80 183 -55T215 20L228 79Q208 52 174 31T105 9Q60 9 35 32T10 95Q10 101 11 108T13 121L93 483H229L160 175Q158 169 158 165T158 157Q158 129 185 129Q205 129 223 146T252 184L318 483H453L349 20Q335 -40 314 -81T265 -147T203 -184T129 -196Z"  />
<glyph unicode="z" horiz-adv-x="351" d="M-31 0L-9 101L185 366H49L76 483H378L356 387L160 117H300L275 0H-31Z"  />
<glyph unicode="{" horiz-adv-x="228" d="M96 -190Q75 -190 55 -183T19 -163T-6 -132T-16 -91Q-16 -75 -13 -64L32 140Q33 145 33 149T34 158Q34 180 24 193T-5 207L11 281Q40 281 55 299T78 348L123 553Q137 614 177 646T280 678H307L288 589H261Q246 589 235 580T220 553L170 323Q162 288 148 267T105 234Q134 219 134 178Q134 160 130 144L85 -56Q84 -61 84 -65T83 -74Q83 -87 90 -94T107 -102H134L114 -190H96Z"  />
<glyph unicode="|" horiz-adv-x="182" d="M67 -20V687H156V-20H67Z"  />
<glyph unicode="}" horiz-adv-x="228" d="M131 678Q152 678 172 671T208 651T234 619T244 578Q244 573 243 565T241 552L195 348Q194 343 194 339T193 329Q193 308 203 295T233 281L216 207Q187 207 172 189T149 140L104 -65Q90 -126 50 -158T-53 -190H-80L-60 -101H-33Q-19 -101 -8 -92T7 -65L57 165Q65 200 79 221T123 254Q109 261 102 275T94 310Q94 328 98 344L142 544Q143 549 144 553T145 562Q145 575 138 582T120 590H93L113 678H131Z"  />
<glyph unicode="~" horiz-adv-x="426" d="M492 660Q486 623 474 580T443 499T394 436T323 411Q293 411 277 424T253 456T245 498T244 540T241 572T228 585Q219 585 211 577T193 548T174 494T154 410L64 417Q70 454 82 497T114 578T164 641T234 666Q264 666 280 653T304 621T312 579T313 537T316 504T329 491Q338 491 346 499T364 528T382 582T403 667L492 660Z"  />
<glyph unicode="&#xA0;" horiz-adv-x="155" />
<glyph unicode="&#xA1;" horiz-adv-x="260" d="M194 261L118 -184H-46L75 261H194ZM176 495Q208 495 230 472T253 417Q253 379 226 352T161 325Q129 325 107 348T84 403Q84 441 111 468T176 495Z"  />
<glyph unicode="&#xA2;" horiz-adv-x="358" d="M102 6Q60 27 37 69T13 176Q13 227 26 278T65 373T126 448T209 490L226 565H323L306 488Q331 482 351 471T386 445L324 344Q313 361 297 368T264 375Q238 375 218 358T183 314T160 255T152 191Q152 148 171 128T223 108Q256 108 280 132L299 25Q256 -10 195 -12L175 -100H78L102 6Z"  />
<glyph unicode="&#xA3;" horiz-adv-x="446" d="M56 364H99Q95 380 93 398T90 438Q90 492 111 536T165 612T239 660T321 677Q355 677 385 668T439 639T477 591T492 523L363 487Q361 519 353 536T322 554Q307 554 294 543T272 512T257 468T251 415Q251 401 253 389T258 364H327L308 278H258Q250 232 230 195T177 137Q189 142 197 143T213 145Q229 145 241 142T265 134T287 126T313 122Q336 122 352 130T380 149L391 27Q373 10 347 -1T285 -12Q255 -12 233 -6T193 8T157 22T117 29Q97 29 77 21T30 -7L11 94Q58 122 87 168T117 266V278H37L56 364Z"  />
<glyph unicode="&#xA4;" horiz-adv-x="506" d="M253 222Q310 222 341 262T372 365Q372 395 364 421T341 467T304 498T253 509Q224 509 202 498T165 468T141 422T133 365Q133 334 141 308T164 263T202 233T253 222ZM19 168L88 239Q50 294 50 365Q50 436 88 489L19 560L64 603L131 534Q155 552 185 563T253 574Q289 574 320 563T375 534L442 603L487 560L418 489Q455 435 455 365Q455 330 445 298T417 240L487 168L442 125L374 194Q325 157 253 157Q181 157 132 194L64 125L19 168Z"  />
<glyph unicode="&#xA5;" horiz-adv-x="459" d="M100 0L125 114H-3L15 196H143L160 272H32L50 355H144L87 667H241L261 416L392 667H558L363 355H455L437 272H311L294 196H420L401 114H276L251 0H100Z"  />
<glyph unicode="&#xA6;" horiz-adv-x="182" d="M67 -20V296H156V-20H67ZM67 371V687H156V371H67Z"  />
<glyph unicode="&#xA7;" horiz-adv-x="366" d="M368 341Q368 292 343 253T266 189Q290 171 301 146T313 95Q313 58 299 26T261 -30T203 -67T130 -81Q71 -81 23 -65T-49 -13L24 73Q38 49 63 34T121 19Q149 19 165 36T181 77Q181 94 170 106T142 129T106 151T70 179T42 217T31 271Q31 321 60 359T139 413Q115 430 101 458T86 515Q86 550 99 579T136 631T190 665T257 677Q322 677 361 659T427 609L358 535Q340 559 316 570T267 582Q243 582 229 567T215 531Q215 515 226 503T255 479T291 455T328 427T356 390T368 341ZM243 308Q243 329 234 343T214 366Q179 358 168 340T156 298Q156 281 165 265T197 236Q220 247 231 265T243 308Z"  />
<glyph unicode="&#xA8;" horiz-adv-x="284" d="M382 620Q382 604 376 590T358 565T332 548T302 541Q275 541 257 559T239 604Q239 620 245 634T263 659T289 676T319 683Q346 683 364 665T382 620ZM208 620Q208 588 184 565T128 541Q101 541 83 559T65 604Q65 620 71 634T89 659T115 676T145 683Q172 683 190 665T208 620Z"  />
<glyph unicode="&#xA9;" horiz-adv-x="778" d="M754 334Q754 263 727 200T652 90T542 16T408 -11Q337 -11 274 16T165 90T91 200T64 334Q64 405 91 468T164 578T274 652T408 679Q479 679 542 652T652 578T726 468T754 334ZM717 334Q717 397 693 453T626 551T528 617T408 642Q345 642 289 618T191 551T125 453T101 334Q101 271 125 215T191 117T289 51T408 26Q471 26 527 50T626 117T692 215T717 334ZM532 178Q505 155 469 139T393 123Q349 123 314 137T254 176T216 234T202 307Q202 358 221 402T273 477T347 527T434 545Q486 545 527 525T594 464L556 437Q538 470 506 487T432 504Q399 504 366 490T307 449T265 387T249 308Q249 279 259 253T287 208T333 176T394 164Q426 164 456 178T507 213L532 178Z"  />
<glyph unicode="&#xAA;" horiz-adv-x="323" d="M228 571Q214 571 202 558T182 525T170 482T165 439Q165 419 172 407T195 395Q206 395 215 404T233 427L259 543Q256 556 248 563T228 571ZM377 640L308 326H211L219 362Q202 338 184 328T146 318Q111 318 88 343T64 430Q64 464 73 502T100 573T143 627T201 648Q223 648 242 638T272 604L280 640H377Z"  />
<glyph unicode="&#xAB;" horiz-adv-x="415" d="M79 63L29 243L159 420H263L130 239L179 63H79ZM242 63L192 243L322 420H426L293 239L342 63H242Z"  />
<glyph unicode="&#xAC;" horiz-adv-x="385" d="M346 199H261L302 386H60L78 469H405L346 199Z"  />
<glyph unicode="&#xAD;" horiz-adv-x="244" d="M17 185L42 299H226L201 185H17Z"  />
<glyph unicode="&#xAE;" horiz-adv-x="494" d="M508 465Q508 421 492 383T446 315T378 270T295 253Q251 253 213 269T146 315T101 382T84 465Q84 509 100 548T146 615T213 660T296 677Q340 677 379 661T446 616T491 548T508 465ZM476 465Q476 502 462 535T423 592T365 631T295 645Q258 645 226 631T169 593T130 535T116 465Q116 428 130 396T168 339T225 300T295 285Q332 285 365 299T422 338T461 395T476 465ZM329 343L287 439H243L222 343H188L241 586H333Q365 586 385 569T405 522Q405 504 398 489T379 463T353 446T325 440L369 343H329ZM369 519Q369 537 358 546T326 556H269L250 470H314Q337 470 353 483T369 519Z"  />
<glyph unicode="&#xAF;" horiz-adv-x="263" d="M77 591L94 667H356L339 591H77Z"  />
<glyph unicode="&#xB0;" horiz-adv-x="314" d="M359 539Q359 511 348 486T319 443T275 414T222 403Q193 403 169 413T125 442T96 486T85 539Q85 567 95 592T125 636T168 666T222 677Q250 677 275 666T318 637T348 593T359 539ZM287 539Q287 566 268 585T222 605Q195 605 177 586T158 539Q158 513 176 494T221 475Q247 475 267 494T287 539Z"  />
<glyph unicode="&#xB1;" horiz-adv-x="385" d="M249 296L218 154H127L159 296H40L59 379H177L207 513H297L268 379H386L368 296H249ZM-21 18L-3 101H324L306 18H-21Z"  />
<glyph unicode="&#xB2;" horiz-adv-x="307" d="M65 421L83 500Q149 551 190 584T254 640T285 678T293 709Q293 746 250 746Q207 746 171 703L124 768Q150 795 184 811T259 827Q287 827 312 820T355 800T384 766T395 720Q395 692 384 668T349 619T290 565T209 502H350L333 421H65Z"  />
<glyph unicode="&#xB3;" horiz-adv-x="307" d="M357 539Q357 516 347 494T319 454T274 425T215 414Q167 414 128 432T70 484L143 541Q153 519 170 507T210 495Q235 495 247 512T260 550Q260 568 248 576T217 585Q208 585 200 585T187 584L204 663Q208 662 220 662T238 662Q264 662 278 675T292 711Q292 728 280 737T248 746Q229 746 210 737T176 710L126 768Q182 827 257 827Q317 827 355 802T393 728Q393 711 387 693T369 660T339 634T297 621Q329 611 343 589T357 539Z"  />
<glyph unicode="&#xB4;" horiz-adv-x="193" d="M153 556H67L178 700H294L153 556Z"  />
<glyph unicode="&#xB5;" horiz-adv-x="441" d="M-54 -184L93 483H229L155 151Q145 107 178 107Q197 107 216 123T246 160L318 483H453L346 0H211L223 57Q206 35 177 15T118 -12L81 -184H-54Z"  />
<glyph unicode="&#xB6;" horiz-adv-x="449" d="M264 -100L420 602H343L187 -100H122L216 323Q188 323 163 334T120 367T90 416T79 479Q79 514 93 548T134 608T195 651T273 667H499L329 -100H264Z"  />
<glyph unicode="&#xB7;" horiz-adv-x="259" d="M121 159Q89 159 67 182T44 237Q44 256 51 272T71 302T101 322T137 330Q169 330 191 307T214 251Q214 232 207 216T186 187T157 167T121 159Z"  />
<glyph unicode="&#xB8;" horiz-adv-x="190" d="M9 -196Q-23 -196 -47 -186T-88 -156L-55 -108Q-43 -122 -27 -131T8 -140Q26 -140 36 -130T47 -105Q47 -97 42 -91T26 -85Q12 -85 4 -98L-38 -70L10 11H75L36 -51Q47 -41 59 -41Q82 -41 97 -57T112 -102Q112 -143 83 -169T9 -196Z"  />
<glyph unicode="&#xB9;" horiz-adv-x="259" d="M157 421L216 688L152 635L106 696L259 821H347L259 421H157Z"  />
<glyph unicode="&#xBA;" horiz-adv-x="318" d="M192 318Q131 318 100 353T68 444Q68 479 79 515T111 581T162 629T232 648Q293 648 324 613T356 522Q356 487 345 451T313 385T262 337T192 318ZM196 396Q212 396 223 412T242 450T253 494T257 528Q257 569 226 569Q210 569 199 553T180 515T169 471T165 437Q165 396 196 396Z"  />
<glyph unicode="&#xBB;" horiz-adv-x="415" d="M173 420L223 240L93 63H-11L122 244L73 420H173ZM336 420L386 240L256 63H152L285 244L236 420H336Z"  />
<glyph unicode="&#xBC;" horiz-adv-x="684" d="M175 0H120L547 667H604L175 0ZM604 84L586 0H485L503 84H352L369 161L552 400H674L622 163H654L636 84H604ZM548 288L455 163H520L548 288ZM123 267L182 534L118 481L72 542L225 667H313L225 267H123Z"  />
<glyph unicode="&#xBD;" horiz-adv-x="721" d="M175 0H120L547 667H604L175 0ZM385 0L403 79Q469 130 510 163T574 219T605 257T613 288Q613 325 570 325Q527 325 491 282L444 347Q470 374 504 390T579 406Q607 406 632 399T675 379T704 345T715 299Q715 271 704 247T669 198T610 144T529 81H670L653 0H385ZM123 267L182 534L118 481L72 542L225 667H313L225 267H123Z"  />
<glyph unicode="&#xBE;" horiz-adv-x="720" d="M211 0H156L583 667H640L211 0ZM640 84L622 0H521L539 84H388L405 161L588 400H710L658 163H690L672 84H640ZM584 288L491 163H556L584 288ZM323 385Q323 362 313 340T285 300T240 271T181 260Q133 260 94 278T36 330L109 387Q119 365 136 353T176 341Q201 341 213 358T226 396Q226 414 214 422T183 431Q174 431 166 431T153 430L170 509Q174 508 186 508T204 508Q230 508 244 521T258 557Q258 574 246 583T214 592Q195 592 176 583T142 556L92 614Q148 673 223 673Q283 673 321 648T359 574Q359 557 353 539T335 506T305 480T263 467Q295 457 309 435T323 385Z"  />
<glyph unicode="&#xBF;" horiz-adv-x="296" d="M228 275Q232 263 234 246T237 215Q237 180 227 154T202 106T169 68T136 36T111 4T101 -30Q101 -46 110 -57T139 -68Q168 -68 189 -47L230 -144Q197 -171 161 -183T90 -195Q59 -195 32 -186T-14 -161T-45 -121T-57 -71Q-57 -36 -45 -8T-13 43T27 87T68 125T99 163T112 204Q112 210 111 220T106 236L228 275ZM208 494Q240 494 262 471T285 416Q285 397 278 381T258 352T228 332T192 324Q160 324 138 347T115 402Q115 421 122 437T142 466T172 486T208 494Z"  />
<glyph unicode="&#xC0;" horiz-adv-x="454" d="M320 728L243 872H357L404 728H320ZM251 0L258 108H142L102 0H-57L233 667H407L402 0H251ZM287 501L189 241H270L287 501Z"  />
<glyph unicode="&#xC1;" horiz-adv-x="454" d="M349 728H263L374 872H490L349 728ZM251 0L258 108H142L102 0H-57L233 667H407L402 0H251ZM287 501L189 241H270L287 501Z"  />
<glyph unicode="&#xC2;" horiz-adv-x="454" d="M386 728L354 814L287 728H212L305 872H425L457 728H386ZM251 0L258 108H142L102 0H-57L233 667H407L402 0H251ZM287 501L189 241H270L287 501Z"  />
<glyph unicode="&#xC3;" horiz-adv-x="454" d="M384 726Q361 726 351 736T335 758T322 780T303 790Q279 790 267 732H197Q210 792 237 829T308 866Q330 866 341 856T358 834T370 812T390 802Q413 802 426 860H496Q483 800 456 763T384 726ZM251 0L258 108H142L102 0H-57L233 667H407L402 0H251ZM287 501L189 241H270L287 501Z"  />
<glyph unicode="&#xC4;" horiz-adv-x="454" d="M505 794Q505 778 499 764T481 739T455 722T425 715Q398 715 380 733T362 778Q362 794 368 808T386 833T412 850T442 857Q469 857 487 839T505 794ZM331 794Q331 762 307 739T251 715Q224 715 206 733T188 778Q188 794 194 808T212 833T238 850T268 857Q295 857 313 839T331 794ZM251 0L258 108H142L102 0H-57L233 667H407L402 0H251ZM287 501L189 241H270L287 501Z"  />
<glyph unicode="&#xC5;" horiz-adv-x="454" d="M335 692Q299 692 277 715T254 774Q254 795 262 813T285 846T317 868T356 877Q392 877 415 854T438 795Q438 774 430 756T407 723T375 700T335 692ZM343 749Q359 749 370 760T382 789Q382 803 374 812T351 821Q335 821 323 809T311 781Q311 767 320 758T343 749ZM251 0L258 108H142L102 0H-57L233 667H407L402 0H251ZM287 501L189 241H270L287 501Z"  />
<glyph unicode="&#xC6;" horiz-adv-x="632" d="M240 0L264 108H159L105 0H-54L322 667H701L672 535H509L481 405H637L607 273H452L421 132H583L554 0H240ZM348 487L224 241H293L348 487Z"  />
<glyph unicode="&#xC7;" horiz-adv-x="448" d="M216 -12L192 -51Q203 -41 215 -41Q238 -41 253 -57T268 -102Q268 -143 239 -169T165 -196Q133 -196 109 -186T68 -156L101 -108Q113 -122 129 -131T164 -140Q182 -140 192 -130T203 -105Q203 -97 198 -91T182 -85Q168 -85 160 -98L118 -70L157 -4Q92 13 59 69T25 211Q25 250 32 300T54 402T92 503T149 592T224 654T321 678Q371 678 405 660T459 611T489 544T500 469L360 442Q359 463 357 481T349 514T335 536T313 544Q292 544 274 526T241 478T215 411T195 337T183 265T179 208Q179 162 190 142T224 122Q266 122 303 202L424 152Q389 75 340 32T217 -12H216Z"  />
<glyph unicode="&#xC8;" horiz-adv-x="392" d="M299 728L222 872H336L383 728H299ZM-7 0L140 667H454L424 535H262L233 405H389L360 273H204L173 132H336L307 0H-7Z"  />
<glyph unicode="&#xC9;" horiz-adv-x="392" d="M329 728H243L354 872H470L329 728ZM-7 0L140 667H454L424 535H262L233 405H389L360 273H204L173 132H336L307 0H-7Z"  />
<glyph unicode="&#xCA;" horiz-adv-x="392" d="M363 728L331 814L264 728H189L282 872H402L434 728H363ZM-7 0L140 667H454L424 535H262L233 405H389L360 273H204L173 132H336L307 0H-7Z"  />
<glyph unicode="&#xCB;" horiz-adv-x="392" d="M484 794Q484 778 478 764T460 739T434 722T404 715Q377 715 359 733T341 778Q341 794 347 808T365 833T391 850T421 857Q448 857 466 839T484 794ZM310 794Q310 762 286 739T230 715Q203 715 185 733T167 778Q167 794 173 808T191 833T217 850T247 857Q274 857 292 839T310 794ZM-7 0L140 667H454L424 535H262L233 405H389L360 273H204L173 132H336L307 0H-7Z"  />
<glyph unicode="&#xCC;" horiz-adv-x="245" d="M215 728L138 872H252L299 728H215ZM-7 0L140 667H291L144 0H-7Z"  />
<glyph unicode="&#xCD;" horiz-adv-x="245" d="M245 728H159L270 872H386L245 728ZM-7 0L140 667H291L144 0H-7Z"  />
<glyph unicode="&#xCE;" horiz-adv-x="245" d="M281 728L249 814L182 728H107L200 872H320L352 728H281ZM-7 0L140 667H291L144 0H-7Z"  />
<glyph unicode="&#xCF;" horiz-adv-x="245" d="M402 793Q402 777 396 763T378 738T352 721T322 714Q295 714 277 732T259 777Q259 793 265 807T283 832T309 849T339 856Q366 856 384 838T402 793ZM228 793Q228 761 204 738T148 714Q121 714 103 732T85 777Q85 793 91 807T109 832T135 849T165 856Q192 856 210 838T228 793ZM-7 0L140 667H291L144 0H-7Z"  />
<glyph unicode="&#xD0;" horiz-adv-x="524" d="M17 0L77 273H20L46 394H103L164 667H345Q381 667 414 653T473 610T514 539T530 441Q530 405 524 358T502 262T462 166T401 82T315 23T203 0H17ZM228 273L197 132H230Q256 132 277 149T314 193T342 255T361 324T372 388T376 439Q376 490 359 512T317 535H286L255 394H318L291 273H228Z"  />
<glyph unicode="&#xD1;" horiz-adv-x="508" d="M413 726Q390 726 380 736T364 758T351 780T332 790Q308 790 296 732H226Q239 792 266 829T337 866Q359 866 370 856T387 834T399 812T419 802Q442 802 455 860H525Q512 800 485 763T413 726ZM266 0L217 331L144 0H-7L140 667H291L333 352L403 667H554L407 0H266Z"  />
<glyph unicode="&#xD2;" horiz-adv-x="500" d="M342 728L265 872H379L426 728H342ZM217 -12Q168 -12 132 5T72 53T37 123T25 211Q25 251 32 301T54 403T93 504T150 592T225 654T321 678Q370 678 406 661T466 613T501 541T513 453Q513 413 506 363T484 262T445 161T388 74T313 12T217 -12ZM224 122Q245 122 263 140T296 187T322 254T342 328T355 398T359 456Q359 495 349 519T313 544Q292 544 274 526T241 478T215 411T195 337T183 266T179 208Q179 170 189 146T224 122Z"  />
<glyph unicode="&#xD3;" horiz-adv-x="500" d="M371 728H285L396 872H512L371 728ZM217 -12Q168 -12 132 5T72 53T37 123T25 211Q25 251 32 301T54 403T93 504T150 592T225 654T321 678Q370 678 406 661T466 613T501 541T513 453Q513 413 506 363T484 262T445 161T388 74T313 12T217 -12ZM224 122Q245 122 263 140T296 187T322 254T342 328T355 398T359 456Q359 495 349 519T313 544Q292 544 274 526T241 478T215 411T195 337T183 266T179 208Q179 170 189 146T224 122Z"  />
<glyph unicode="&#xD4;" horiz-adv-x="500" d="M410 728L378 814L311 728H236L329 872H449L481 728H410ZM217 -12Q168 -12 132 5T72 53T37 123T25 211Q25 251 32 301T54 403T93 504T150 592T225 654T321 678Q370 678 406 661T466 613T501 541T513 453Q513 413 506 363T484 262T445 161T388 74T313 12T217 -12ZM224 122Q245 122 263 140T296 187T322 254T342 328T355 398T359 456Q359 495 349 519T313 544Q292 544 274 526T241 478T215 411T195 337T183 266T179 208Q179 170 189 146T224 122Z"  />
<glyph unicode="&#xD5;" horiz-adv-x="500" d="M411 726Q388 726 378 736T362 758T349 780T330 790Q306 790 294 732H224Q237 792 264 829T335 866Q357 866 368 856T385 834T397 812T417 802Q440 802 453 860H523Q510 800 483 763T411 726ZM217 -12Q168 -12 132 5T72 53T37 123T25 211Q25 251 32 301T54 403T93 504T150 592T225 654T321 678Q370 678 406 661T466 613T501 541T513 453Q513 413 506 363T484 262T445 161T388 74T313 12T217 -12ZM224 122Q245 122 263 140T296 187T322 254T342 328T355 398T359 456Q359 495 349 519T313 544Q292 544 274 526T241 478T215 411T195 337T183 266T179 208Q179 170 189 146T224 122Z"  />
<glyph unicode="&#xD6;" horiz-adv-x="500" d="M529 794Q529 778 523 764T505 739T479 722T449 715Q422 715 404 733T386 778Q386 794 392 808T410 833T436 850T466 857Q493 857 511 839T529 794ZM355 794Q355 762 331 739T275 715Q248 715 230 733T212 778Q212 794 218 808T236 833T262 850T292 857Q319 857 337 839T355 794ZM217 -12Q168 -12 132 5T72 53T37 123T25 211Q25 251 32 301T54 403T93 504T150 592T225 654T321 678Q370 678 406 661T466 613T501 541T513 453Q513 413 506 363T484 262T445 161T388 74T313 12T217 -12ZM224 122Q245 122 263 140T296 187T322 254T342 328T355 398T359 456Q359 495 349 519T313 544Q292 544 274 526T241 478T215 411T195 337T183 266T179 208Q179 170 189 146T224 122Z"  />
<glyph unicode="&#xD7;" horiz-adv-x="385" d="M205 275L83 175L32 240L155 340L81 434L146 487L220 393L342 493L393 428L271 328L344 234L279 181L205 275Z"  />
<glyph unicode="&#xD8;" horiz-adv-x="500" d="M217 -12Q177 -12 146 -1T91 32L68 0H-17L49 90Q25 141 25 211Q25 251 32 301T54 403T93 504T150 592T225 654T321 678Q362 678 393 666T448 632L473 667H557L489 574Q513 521 513 453Q513 413 506 363T484 262T445 161T388 74T313 12T217 -12ZM313 544Q287 544 266 518T229 451T201 363T184 274L354 505Q349 523 339 533T313 544ZM224 122Q249 122 270 148T307 214T335 301T353 389L184 159Q195 122 224 122Z"  />
<glyph unicode="&#xD9;" horiz-adv-x="508" d="M348 728L271 872H385L432 728H348ZM222 -12Q183 -12 149 0T89 36T49 93T34 168Q34 187 39 209L140 667H291L187 195Q186 190 185 183T184 170Q184 146 198 133T234 120Q257 120 273 137T299 195L403 667H554L452 204Q440 147 417 107T364 40T298 1T222 -12Z"  />
<glyph unicode="&#xDA;" horiz-adv-x="508" d="M376 728H290L401 872H517L376 728ZM222 -12Q183 -12 149 0T89 36T49 93T34 168Q34 187 39 209L140 667H291L187 195Q186 190 185 183T184 170Q184 146 198 133T234 120Q257 120 273 137T299 195L403 667H554L452 204Q440 147 417 107T364 40T298 1T222 -12Z"  />
<glyph unicode="&#xDB;" horiz-adv-x="508" d="M414 728L382 814L315 728H240L333 872H453L485 728H414ZM222 -12Q183 -12 149 0T89 36T49 93T34 168Q34 187 39 209L140 667H291L187 195Q186 190 185 183T184 170Q184 146 198 133T234 120Q257 120 273 137T299 195L403 667H554L452 204Q440 147 417 107T364 40T298 1T222 -12Z"  />
<glyph unicode="&#xDC;" horiz-adv-x="508" d="M532 794Q532 778 526 764T508 739T482 722T452 715Q425 715 407 733T389 778Q389 794 395 808T413 833T439 850T469 857Q496 857 514 839T532 794ZM358 794Q358 762 334 739T278 715Q251 715 233 733T215 778Q215 794 221 808T239 833T265 850T295 857Q322 857 340 839T358 794ZM222 -12Q183 -12 149 0T89 36T49 93T34 168Q34 187 39 209L140 667H291L187 195Q186 190 185 183T184 170Q184 146 198 133T234 120Q257 120 273 137T299 195L403 667H554L452 204Q440 147 417 107T364 40T298 1T222 -12Z"  />
<glyph unicode="&#xDD;" horiz-adv-x="459" d="M353 728H267L378 872H494L353 728ZM100 0L160 272L87 667H241L261 416L392 667H558L311 272L251 0H100Z"  />
<glyph unicode="&#xDE;" horiz-adv-x="469" d="M-7 0L140 667H291L268 561H302Q340 561 371 548T426 512T462 455T475 383Q475 338 461 293T415 211T336 151T221 128H172L144 0H-7ZM232 260Q251 260 267 269T294 293T312 327T318 368Q318 397 304 413T267 429H238L201 260H232Z"  />
<glyph unicode="&#xDF;" horiz-adv-x="549" d="M518 163Q518 133 506 102T471 45T415 4T340 -12Q286 -12 245 4T174 58L239 146Q254 126 274 111T323 96Q342 96 356 108T371 141Q371 160 352 174T308 205T265 247T245 312Q245 345 255 367T279 405T311 433T342 456T367 479T377 510Q377 531 360 544T313 557Q283 557 262 539T230 475L126 0H-10L95 475Q104 518 123 555T170 619T237 661T324 677Q363 677 398 666T460 635T502 586T518 525Q518 494 508 472T483 434T450 405T417 381T392 360T382 336Q382 323 392 314T417 296T450 276T483 250T508 214T518 163Z"  />
<glyph unicode="&#xE0;" horiz-adv-x="434" d="M273 556L196 700H310L357 556H273ZM216 0L226 47Q209 20 180 4T119 -12Q71 -12 38 20T4 113Q4 153 15 187T48 248T97 289T160 304Q175 304 191 301T223 290T250 272T270 246L282 298Q285 313 285 327Q285 353 265 368T215 383Q192 383 167 375T114 347L87 445Q120 472 164 483T250 495Q287 495 319 487T375 463T413 422T427 364Q427 356 426 345T421 319L351 0H216ZM187 78Q204 78 218 87T242 115L255 174Q249 194 235 204T201 214Q186 214 175 206T156 186T145 158T141 127Q141 103 153 91T187 78Z"  />
<glyph unicode="&#xE1;" horiz-adv-x="434" d="M303 556H217L328 700H444L303 556ZM216 0L226 47Q209 20 180 4T119 -12Q71 -12 38 20T4 113Q4 153 15 187T48 248T97 289T160 304Q175 304 191 301T223 290T250 272T270 246L282 298Q285 313 285 327Q285 353 265 368T215 383Q192 383 167 375T114 347L87 445Q120 472 164 483T250 495Q287 495 319 487T375 463T413 422T427 364Q427 356 426 345T421 319L351 0H216ZM187 78Q204 78 218 87T242 115L255 174Q249 194 235 204T201 214Q186 214 175 206T156 186T145 158T141 127Q141 103 153 91T187 78Z"  />
<glyph unicode="&#xE2;" horiz-adv-x="434" d="M341 556L309 642L242 556H167L260 700H380L412 556H341ZM216 0L226 47Q209 20 180 4T119 -12Q71 -12 38 20T4 113Q4 153 15 187T48 248T97 289T160 304Q175 304 191 301T223 290T250 272T270 246L282 298Q285 313 285 327Q285 353 265 368T215 383Q192 383 167 375T114 347L87 445Q120 472 164 483T250 495Q287 495 319 487T375 463T413 422T427 364Q427 356 426 345T421 319L351 0H216ZM187 78Q204 78 218 87T242 115L255 174Q249 194 235 204T201 214Q186 214 175 206T156 186T145 158T141 127Q141 103 153 91T187 78Z"  />
<glyph unicode="&#xE3;" horiz-adv-x="434" d="M340 554Q317 554 307 564T291 586T278 608T259 618Q235 618 223 560H153Q166 620 193 657T264 694Q286 694 297 684T314 662T326 640T346 630Q369 630 382 688H452Q439 628 412 591T340 554ZM216 0L226 47Q209 20 180 4T119 -12Q71 -12 38 20T4 113Q4 153 15 187T48 248T97 289T160 304Q175 304 191 301T223 290T250 272T270 246L282 298Q285 313 285 327Q285 353 265 368T215 383Q192 383 167 375T114 347L87 445Q120 472 164 483T250 495Q287 495 319 487T375 463T413 422T427 364Q427 356 426 345T421 319L351 0H216ZM187 78Q204 78 218 87T242 115L255 174Q249 194 235 204T201 214Q186 214 175 206T156 186T145 158T141 127Q141 103 153 91T187 78Z"  />
<glyph unicode="&#xE4;" horiz-adv-x="434" d="M459 620Q459 604 453 590T435 565T409 548T379 541Q352 541 334 559T316 604Q316 620 322 634T340 659T366 676T396 683Q423 683 441 665T459 620ZM285 620Q285 588 261 565T205 541Q178 541 160 559T142 604Q142 620 148 634T166 659T192 676T222 683Q249 683 267 665T285 620ZM216 0L226 47Q209 20 180 4T119 -12Q71 -12 38 20T4 113Q4 153 15 187T48 248T97 289T160 304Q175 304 191 301T223 290T250 272T270 246L282 298Q285 313 285 327Q285 353 265 368T215 383Q192 383 167 375T114 347L87 445Q120 472 164 483T250 495Q287 495 319 487T375 463T413 422T427 364Q427 356 426 345T421 319L351 0H216ZM187 78Q204 78 218 87T242 115L255 174Q249 194 235 204T201 214Q186 214 175 206T156 186T145 158T141 127Q141 103 153 91T187 78Z"  />
<glyph unicode="&#xE5;" horiz-adv-x="434" d="M292 546Q256 546 234 569T211 628Q211 649 219 667T242 700T274 722T313 731Q349 731 372 708T395 649Q395 628 387 610T364 577T332 554T292 546ZM300 603Q316 603 327 614T339 643Q339 657 331 666T308 675Q292 675 280 663T268 635Q268 621 277 612T300 603ZM216 0L226 47Q209 20 180 4T119 -12Q71 -12 38 20T4 113Q4 153 15 187T48 248T97 289T160 304Q175 304 191 301T223 290T250 272T270 246L282 298Q285 313 285 327Q285 353 265 368T215 383Q192 383 167 375T114 347L87 445Q120 472 164 483T250 495Q287 495 319 487T375 463T413 422T427 364Q427 356 426 345T421 319L351 0H216ZM187 78Q204 78 218 87T242 115L255 174Q249 194 235 204T201 214Q186 214 175 206T156 186T145 158T141 127Q141 103 153 91T187 78Z"  />
<glyph unicode="&#xE6;" horiz-adv-x="669" d="M389 197Q386 182 386 169Q386 141 405 120T467 98Q487 98 507 107T548 134L592 49Q524 -12 440 -12Q388 -12 354 7T300 61Q270 31 230 10T131 -12Q76 -12 40 23T4 119Q4 159 15 192T48 251T97 290T160 304Q175 304 192 301T224 290T251 273T271 247L282 298Q285 314 285 325Q285 353 266 368T215 383Q192 383 167 376T114 347L87 445Q123 473 166 484T250 495Q301 495 329 477T370 429Q395 457 430 476T504 495Q573 495 615 454T657 323Q657 293 651 259T638 197H389ZM252 143Q252 151 252 160T255 174Q248 196 233 205T201 214Q174 214 158 188T141 127Q141 101 153 90T187 78Q210 78 225 91T252 125V143ZM532 291Q534 299 535 308T536 325Q536 352 523 368T485 385Q467 385 454 376T432 353T417 323T408 291H532Z"  />
<glyph unicode="&#xE7;" horiz-adv-x="358" d="M137 -196Q105 -196 81 -186T40 -156L73 -108Q85 -122 101 -131T136 -140Q154 -140 164 -130T175 -105Q175 -97 170 -91T154 -85Q140 -85 132 -98L90 -70L129 -4Q74 12 44 57T13 176Q13 233 29 289T76 392T151 466T252 495Q294 495 330 481T386 445L324 344Q313 361 297 368T264 375Q238 375 218 358T183 314T160 255T152 191Q152 148 171 128T223 108Q256 108 280 132L299 25Q254 -12 189 -12H188L164 -51Q175 -41 187 -41Q210 -41 225 -57T240 -102Q240 -143 211 -169T137 -196Z"  />
<glyph unicode="&#xE8;" horiz-adv-x="420" d="M191 -12Q106 -12 60 37T13 178Q13 226 28 282T72 385T146 463T248 495Q290 495 320 483T370 447T399 393T408 323Q408 288 401 253T389 197H139Q136 182 136 168Q136 157 139 145T152 122T178 104T218 97Q241 97 261 107T299 134L343 49Q314 20 273 4T191 -12ZM283 291Q287 307 287 327Q287 354 273 370T237 386Q219 386 205 377T182 354T167 323T158 291H281H283ZM272 556L195 700H309L356 556H272Z"  />
<glyph unicode="&#xE9;" horiz-adv-x="420" d="M191 -12Q106 -12 60 37T13 178Q13 226 28 282T72 385T146 463T248 495Q290 495 320 483T370 447T399 393T408 323Q408 288 401 253T389 197H139Q136 182 136 168Q136 157 139 145T152 122T178 104T218 97Q241 97 261 107T299 134L343 49Q314 20 273 4T191 -12ZM283 291Q287 307 287 327Q287 354 273 370T237 386Q219 386 205 377T182 354T167 323T158 291H281H283ZM303 556H217L328 700H444L303 556Z"  />
<glyph unicode="&#xEA;" horiz-adv-x="420" d="M191 -12Q106 -12 60 37T13 178Q13 226 28 282T72 385T146 463T248 495Q290 495 320 483T370 447T399 393T408 323Q408 288 401 253T389 197H139Q136 182 136 168Q136 157 139 145T152 122T178 104T218 97Q241 97 261 107T299 134L343 49Q314 20 273 4T191 -12ZM283 291Q287 307 287 327Q287 354 273 370T237 386Q219 386 205 377T182 354T167 323T158 291H281H283ZM334 556L302 642L235 556H160L253 700H373L405 556H334Z"  />
<glyph unicode="&#xEB;" horiz-adv-x="420" d="M191 -12Q106 -12 60 37T13 178Q13 226 28 282T72 385T146 463T248 495Q290 495 320 483T370 447T399 393T408 323Q408 288 401 253T389 197H139Q136 182 136 168Q136 157 139 145T152 122T178 104T218 97Q241 97 261 107T299 134L343 49Q314 20 273 4T191 -12ZM283 291Q287 307 287 327Q287 354 273 370T237 386Q219 386 205 377T182 354T167 323T158 291H281H283ZM453 620Q453 604 447 590T429 565T403 548T373 541Q346 541 328 559T310 604Q310 620 316 634T334 659T360 676T390 683Q417 683 435 665T453 620ZM279 620Q279 588 255 565T199 541Q172 541 154 559T136 604Q136 620 142 634T160 659T186 676T216 683Q243 683 261 665T279 620Z"  />
<glyph unicode="&#xEC;" horiz-adv-x="216" d="M163 556L86 700H200L247 556H163ZM-14 0L93 483H229L122 0H-14Z"  />
<glyph unicode="&#xED;" horiz-adv-x="216" d="M191 556H105L216 700H332L191 556ZM-14 0L93 483H229L122 0H-14Z"  />
<glyph unicode="&#xEE;" horiz-adv-x="216" d="M230 556L198 642L131 556H56L149 700H269L301 556H230ZM-14 0L93 483H229L122 0H-14Z"  />
<glyph unicode="&#xEF;" horiz-adv-x="216" d="M348 620Q348 604 342 590T324 565T298 548T268 541Q241 541 223 559T205 604Q205 620 211 634T229 659T255 676T285 683Q312 683 330 665T348 620ZM174 620Q174 588 150 565T94 541Q67 541 49 559T31 604Q31 620 37 634T55 659T81 676T111 683Q138 683 156 665T174 620ZM-14 0L93 483H229L122 0H-14Z"  />
<glyph unicode="&#xF0;" horiz-adv-x="434" d="M185 555L287 585Q278 633 264 668L396 708Q404 685 409 665T420 624L485 644L499 582L431 562Q436 531 437 501T439 436Q439 390 434 339T416 237T384 142T336 63T271 9T188 -12Q143 -12 110 1T54 38T22 94T11 166Q11 211 24 262T63 357T126 429T210 458Q252 458 275 434T305 375Q305 407 303 445T296 521L199 492L185 555ZM191 108Q212 108 227 125T254 169T270 224T276 276Q276 297 267 317T231 338Q210 338 195 320T169 275T153 219T148 170Q148 108 191 108Z"  />
<glyph unicode="&#xF1;" horiz-adv-x="441" d="M211 0L284 330Q285 332 286 338T287 347Q287 375 260 375Q239 375 222 358T192 320L122 0H-14L93 483H229L215 424Q235 451 268 473T339 495Q384 495 409 472T434 410Q434 405 433 396T431 383L346 0H211ZM343 554Q320 554 310 564T294 586T281 608T262 618Q238 618 226 560H156Q169 620 196 657T267 694Q289 694 300 684T317 662T329 640T349 630Q372 630 385 688H455Q442 628 415 591T343 554Z"  />
<glyph unicode="&#xF2;" horiz-adv-x="434" d="M185 -12Q99 -12 56 38T13 175Q13 227 28 283T74 387T147 464T248 495Q333 495 376 445T420 308Q420 256 405 200T359 96T286 19T185 -12ZM192 108Q215 108 232 132T260 189T277 256T283 311Q283 347 272 361T240 375Q217 375 200 351T172 294T155 227T149 171Q149 136 160 122T192 108ZM272 556L195 700H309L356 556H272Z"  />
<glyph unicode="&#xF3;" horiz-adv-x="434" d="M185 -12Q99 -12 56 38T13 175Q13 227 28 283T74 387T147 464T248 495Q333 495 376 445T420 308Q420 256 405 200T359 96T286 19T185 -12ZM192 108Q215 108 232 132T260 189T277 256T283 311Q283 347 272 361T240 375Q217 375 200 351T172 294T155 227T149 171Q149 136 160 122T192 108ZM301 556H215L326 700H442L301 556Z"  />
<glyph unicode="&#xF4;" horiz-adv-x="434" d="M185 -12Q99 -12 56 38T13 175Q13 227 28 283T74 387T147 464T248 495Q333 495 376 445T420 308Q420 256 405 200T359 96T286 19T185 -12ZM192 108Q215 108 232 132T260 189T277 256T283 311Q283 347 272 361T240 375Q217 375 200 351T172 294T155 227T149 171Q149 136 160 122T192 108ZM338 556L306 642L239 556H164L257 700H377L409 556H338Z"  />
<glyph unicode="&#xF5;" horiz-adv-x="434" d="M185 -12Q99 -12 56 38T13 175Q13 227 28 283T74 387T147 464T248 495Q333 495 376 445T420 308Q420 256 405 200T359 96T286 19T185 -12ZM192 108Q215 108 232 132T260 189T277 256T283 311Q283 347 272 361T240 375Q217 375 200 351T172 294T155 227T149 171Q149 136 160 122T192 108ZM339 554Q316 554 306 564T290 586T277 608T258 618Q234 618 222 560H152Q165 620 192 657T263 694Q285 694 296 684T313 662T325 640T345 630Q368 630 381 688H451Q438 628 411 591T339 554Z"  />
<glyph unicode="&#xF6;" horiz-adv-x="434" d="M185 -12Q99 -12 56 38T13 175Q13 227 28 283T74 387T147 464T248 495Q333 495 376 445T420 308Q420 256 405 200T359 96T286 19T185 -12ZM192 108Q215 108 232 132T260 189T277 256T283 311Q283 347 272 361T240 375Q217 375 200 351T172 294T155 227T149 171Q149 136 160 122T192 108ZM457 620Q457 604 451 590T433 565T407 548T377 541Q350 541 332 559T314 604Q314 620 320 634T338 659T364 676T394 683Q421 683 439 665T457 620ZM283 620Q283 588 259 565T203 541Q176 541 158 559T140 604Q140 620 146 634T164 659T190 676T220 683Q247 683 265 665T283 620Z"  />
<glyph unicode="&#xF7;" horiz-adv-x="374" d="M40 296L59 379H375L356 296H40ZM169 127Q145 127 129 144T112 185Q112 213 132 233T181 253Q204 253 221 236T238 195Q238 167 218 147T169 127ZM234 420Q210 420 194 436T177 477Q177 506 197 526T246 546Q270 546 286 529T303 488Q303 459 283 440T234 420Z"  />
<glyph unicode="&#xF8;" horiz-adv-x="434" d="M-28 0L34 72Q13 114 13 175Q13 227 28 283T74 387T147 464T248 495Q284 495 313 485T363 457L386 483H461L399 410Q420 368 420 308Q420 256 405 200T359 96T286 19T185 -12Q112 -12 69 25L48 0H-28ZM240 375Q221 375 207 359T181 317T163 264T152 210L275 354Q265 375 240 375ZM192 108Q210 108 225 124T251 164T269 217T280 271L157 127Q166 108 192 108Z"  />
<glyph unicode="&#xF9;" horiz-adv-x="441" d="M229 483L156 153Q153 144 153 136Q153 108 180 108Q200 108 217 124T247 161L318 483H453L346 0H211L225 59Q205 32 172 10T101 -12Q56 -12 31 11T6 73Q6 78 7 87T9 100L93 483H229ZM275 556L198 700H312L359 556H275Z"  />
<glyph unicode="&#xFA;" horiz-adv-x="441" d="M229 483L156 153Q153 144 153 136Q153 108 180 108Q200 108 217 124T247 161L318 483H453L346 0H211L225 59Q205 32 172 10T101 -12Q56 -12 31 11T6 73Q6 78 7 87T9 100L93 483H229ZM305 556H219L330 700H446L305 556Z"  />
<glyph unicode="&#xFB;" horiz-adv-x="441" d="M229 483L156 153Q153 144 153 136Q153 108 180 108Q200 108 217 124T247 161L318 483H453L346 0H211L225 59Q205 32 172 10T101 -12Q56 -12 31 11T6 73Q6 78 7 87T9 100L93 483H229ZM342 556L310 642L243 556H168L261 700H381L413 556H342Z"  />
<glyph unicode="&#xFC;" horiz-adv-x="441" d="M229 483L156 153Q153 144 153 136Q153 108 180 108Q200 108 217 124T247 161L318 483H453L346 0H211L225 59Q205 32 172 10T101 -12Q56 -12 31 11T6 73Q6 78 7 87T9 100L93 483H229ZM461 620Q461 604 455 590T437 565T411 548T381 541Q354 541 336 559T318 604Q318 620 324 634T342 659T368 676T398 683Q425 683 443 665T461 620ZM287 620Q287 588 263 565T207 541Q180 541 162 559T144 604Q144 620 150 634T168 659T194 676T224 683Q251 683 269 665T287 620Z"  />
<glyph unicode="&#xFD;" horiz-adv-x="441" d="M304 556H218L329 700H445L304 556ZM129 -196Q72 -196 27 -179T-39 -133L27 -32Q44 -55 70 -67T124 -80Q162 -80 183 -55T215 20L228 79Q208 52 174 31T105 9Q60 9 35 32T10 95Q10 101 11 108T13 121L93 483H229L160 175Q158 169 158 165T158 157Q158 129 185 129Q205 129 223 146T252 184L318 483H453L349 20Q335 -40 314 -81T265 -147T203 -184T129 -196Z"  />
<glyph unicode="&#xFE;" horiz-adv-x="442" d="M233 -12Q197 -12 172 4T134 58L81 -184H-54L133 667H269L216 428Q240 463 266 479T319 495Q431 495 431 335Q431 287 419 227T383 114T321 24T233 -12ZM200 108Q224 108 241 132T270 189T286 258T292 316Q292 375 248 375Q232 375 218 362T194 331L155 153Q159 132 171 120T200 108Z"  />
<glyph unicode="&#xFF;" horiz-adv-x="441" d="M461 620Q461 604 455 590T437 565T411 548T381 541Q354 541 336 559T318 604Q318 620 324 634T342 659T368 676T398 683Q425 683 443 665T461 620ZM287 620Q287 588 263 565T207 541Q180 541 162 559T144 604Q144 620 150 634T168 659T194 676T224 683Q251 683 269 665T287 620ZM129 -196Q72 -196 27 -179T-39 -133L27 -32Q44 -55 70 -67T124 -80Q162 -80 183 -55T215 20L228 79Q208 52 174 31T105 9Q60 9 35 32T10 95Q10 101 11 108T13 121L93 483H229L160 175Q158 169 158 165T158 157Q158 129 185 129Q205 129 223 146T252 184L318 483H453L349 20Q335 -40 314 -81T265 -147T203 -184T129 -196Z"  />
<glyph unicode="&#x152;" horiz-adv-x="651" d="M259 0L268 42Q245 10 217 -1T168 -12Q105 -12 65 45T24 211Q24 255 32 306T56 409T97 509T153 595T225 654T313 677Q338 677 363 665T398 625L406 667H720L691 535H528L500 405H656L626 273H471L440 132H602L573 0H259ZM363 470Q361 510 348 526T316 543Q293 543 275 525T241 478T214 412T194 338T182 266T178 208Q178 168 187 145T223 122Q242 122 263 140T303 197L363 470Z"  />
<glyph unicode="&#x153;" horiz-adv-x="672" d="M396 197Q395 194 394 183T393 169Q393 156 397 144T410 121T434 105T472 98Q490 98 511 106T552 134L596 49Q564 17 524 3T446 -12Q398 -12 366 8T319 66Q289 28 257 8T183 -12Q139 -12 107 1T54 40T23 99T13 175Q13 230 28 287T74 390T147 466T246 495Q287 495 318 476T369 419Q395 455 430 475T503 495Q575 495 618 455T661 323Q661 289 655 257T642 197H396ZM536 291Q538 297 539 308T540 327Q540 353 529 369T492 385Q474 385 461 376T438 354T424 323T415 291H536ZM279 311Q279 337 271 356T237 375Q214 375 198 353T171 298T155 230T149 171Q149 145 157 126T192 107Q214 107 230 131T257 188T273 255T279 311Z"  />
<glyph unicode="&#x160;" horiz-adv-x="412" d="M278 728L246 872H317L349 786L416 872H491L398 728H278ZM165 -12Q104 -12 53 10T-25 68L59 180Q77 154 106 138T164 122Q191 122 210 141T229 192Q229 211 218 227T189 260T151 295T113 336T84 387T72 451Q72 498 89 539T135 611T205 660T293 678Q340 678 386 661T462 609L383 498Q366 519 342 531T291 544Q262 544 247 525T232 481Q232 462 243 446T272 413T309 377T347 336T375 285T387 221Q387 174 371 132T326 58T256 7T165 -12Z"  />
<glyph unicode="&#x161;" horiz-adv-x="364" d="M144 -12Q115 -12 88 -6T39 10T-1 34T-27 62L44 149Q58 128 85 111T144 94Q167 94 182 107T197 138Q197 151 186 161T157 182T121 205T84 233T56 272T44 326Q44 359 55 389T88 443T144 481T221 495Q266 495 309 477T381 426L312 341Q307 348 298 356T276 372T250 384T220 389Q199 389 187 378T174 350Q174 338 185 329T214 309T252 286T290 256T319 216T331 162Q331 128 318 97T281 41T223 3T144 -12ZM197 556L165 700H236L268 614L335 700H410L317 556H197Z"  />
<glyph unicode="&#x178;" horiz-adv-x="459" d="M509 794Q509 778 503 764T485 739T459 722T429 715Q402 715 384 733T366 778Q366 794 372 808T390 833T416 850T446 857Q473 857 491 839T509 794ZM335 794Q335 762 311 739T255 715Q228 715 210 733T192 778Q192 794 198 808T216 833T242 850T272 857Q299 857 317 839T335 794ZM100 0L160 272L87 667H241L261 416L392 667H558L311 272L251 0H100Z"  />
<glyph unicode="&#x17D;" horiz-adv-x="394" d="M245 728L213 872H284L316 786L383 872H458L365 728H245ZM-26 0L1 127L245 535H91L121 667H452L426 546L178 132H341L312 0H-26Z"  />
<glyph unicode="&#x17E;" horiz-adv-x="351" d="M-31 0L-9 101L185 366H49L76 483H378L356 387L160 117H300L275 0H-31ZM183 556L151 700H222L254 614L321 700H396L303 556H183Z"  />
<glyph unicode="&#x192;" horiz-adv-x="414" d="M-45 -161L42 236H2V354H69L108 536Q122 601 162 639T267 677Q293 677 321 671T370 651L331 534Q318 545 300 545Q281 545 271 532T255 497L224 354H296V236H197L109 -161H-45Z"  />
<glyph unicode="&#x2C6;" horiz-adv-x="245" d="M243 556L211 642L144 556H69L162 700H282L314 556H243Z"  />
<glyph unicode="&#x2DC;" horiz-adv-x="271" d="M257 554Q234 554 224 564T208 586T195 608T176 618Q152 618 140 560H70Q83 620 110 657T181 694Q203 694 214 684T231 662T243 640T263 630Q286 630 299 688H369Q356 628 329 591T257 554Z"  />
<glyph unicode="&#x2013;" horiz-adv-x="460" d="M17 185L42 299H442L417 185H17Z"  />
<glyph unicode="&#x2014;" horiz-adv-x="640" d="M17 185L42 299H622L597 185H17Z"  />
<glyph unicode="&#x2018;" horiz-adv-x="262" d="M90 472Q90 501 101 531T133 588T182 639T242 678L289 628Q276 622 261 613T232 594T207 570T189 544Q191 545 194 545T200 545Q226 545 245 528T265 477Q265 459 257 443T236 414T206 394T171 387Q139 387 115 408T90 472Z"  />
<glyph unicode="&#x2019;" horiz-adv-x="262" d="M296 592Q296 563 285 533T253 476T204 425T144 386L97 436Q110 442 125 451T154 470T179 493T197 520Q195 519 192 519T186 519Q160 519 141 536T121 587Q121 605 129 621T150 650T180 670T215 677Q247 677 271 656T296 592Z"  />
<glyph unicode="&#x201A;" horiz-adv-x="262" d="M181 73Q181 44 170 14T138 -43T90 -94T29 -132L-18 -83Q9 -71 39 -48T82 1Q80 0 77 0T71 0Q45 0 26 17T7 68Q7 87 15 103T36 132T65 151T100 158Q132 158 156 137T181 73Z"  />
<glyph unicode="&#x201C;" horiz-adv-x="472" d="M302 472Q302 501 313 531T345 588T394 639T454 678L501 628Q488 622 473 613T444 594T419 570T401 544Q403 545 406 545T412 545Q438 545 457 528T477 477Q477 459 469 443T448 414T419 394T384 387Q352 387 327 408T302 472ZM93 472Q93 501 104 531T136 588T184 639T245 678L292 628Q265 616 235 594T192 544Q194 545 197 545T203 545Q229 545 248 528T267 477Q267 459 259 443T238 414T209 394T174 387Q142 387 118 408T93 472Z"  />
<glyph unicode="&#x201D;" horiz-adv-x="472" d="M296 592Q296 563 285 533T253 476T204 425T144 386L97 436Q110 442 125 451T154 470T179 493T197 520Q195 519 192 519T186 519Q160 519 141 536T121 587Q121 605 129 621T150 650T180 670T215 677Q247 677 271 656T296 592ZM505 592Q505 563 494 533T462 476T414 425T354 386L306 436Q333 448 363 470T406 520Q404 519 401 519T395 519Q369 519 350 536T331 587Q331 605 339 621T360 650T389 670T424 677Q456 677 480 656T505 592Z"  />
<glyph unicode="&#x201E;" horiz-adv-x="472" d="M181 73Q181 44 170 14T138 -43T90 -94T29 -132L-18 -83Q9 -71 39 -48T82 1Q80 0 77 0T71 0Q45 0 26 17T7 68Q7 87 15 103T36 132T65 151T100 158Q132 158 156 137T181 73ZM390 73Q390 44 379 14T347 -43T299 -94T239 -132L191 -83Q204 -77 219 -68T248 -48T273 -25T291 1Q289 0 286 0T280 0Q254 0 235 17T216 68Q216 87 224 103T245 132T274 151T309 158Q341 158 365 137T390 73Z"  />
<glyph unicode="&#x2020;" horiz-adv-x="279" d="M232 525L193 327H122L170 525L80 521L95 586L183 583L200 677H271L246 583L335 586L320 521L232 525Z"  />
<glyph unicode="&#x2021;" horiz-adv-x="279" d="M320 521L232 525L190 334L280 338L265 273L177 276L160 180H89L114 276L25 273L40 338L127 334L169 525L80 521L95 586L183 583L200 677H271L246 583L335 586L320 521Z"  />
<glyph unicode="&#x2022;" horiz-adv-x="358" d="M300 254Q300 227 289 203T260 162T218 134T166 123Q119 123 89 153T58 231Q58 258 69 282T98 323T140 351T192 362Q239 362 269 332T300 254Z"  />
<glyph unicode="&#x2026;" horiz-adv-x="778" d="M84 -12Q52 -12 30 11T7 66Q7 104 34 131T99 158Q131 158 153 135T176 80Q176 42 149 15T84 -12ZM343 -12Q311 -12 289 11T266 66Q266 85 273 101T293 130T323 150T359 158Q391 158 413 135T435 80Q435 42 408 15T343 -12ZM602 -12Q570 -12 548 11T525 66Q525 85 532 101T552 130T582 150T618 158Q650 158 672 135T695 80Q695 61 688 45T667 16T638 -4T602 -12Z"  />
<glyph unicode="&#x2030;" horiz-adv-x="880" d="M76 0L504 667H560L131 0H76ZM405 -12Q376 -12 354 -2T317 25T295 65T287 114Q287 157 300 195T335 261T385 305T445 321Q473 321 495 311T532 284T555 244T563 195Q563 151 550 114T515 48T465 4T405 -12ZM411 70Q422 70 433 79T454 105T470 142T476 186Q476 239 439 239Q428 239 417 230T396 204T380 167T374 123Q374 70 411 70ZM189 344Q160 344 138 354T101 381T79 421T71 470Q71 513 84 551T119 617T169 661T229 677Q257 677 279 667T316 640T339 600T347 551Q347 507 334 470T299 404T249 360T189 344ZM195 426Q206 426 217 435T238 461T254 498T260 542Q260 595 223 595Q212 595 201 586T180 560T164 523T158 479Q158 426 195 426ZM689 -12Q661 -12 639 -2T602 25T579 65T571 114Q571 157 584 195T619 261T670 305T730 321Q758 321 780 311T817 284T840 244T848 195Q848 151 835 114T800 48T749 4T689 -12ZM696 70Q706 70 717 79T738 105T754 142T760 186Q760 239 723 239Q712 239 701 230T680 204T665 167T659 123Q659 70 696 70Z"  />
<glyph unicode="&#x2039;" horiz-adv-x="252" d="M79 63L29 243L159 420H263L130 239L179 63H79Z"  />
<glyph unicode="&#x203A;" horiz-adv-x="252" d="M173 420L223 240L93 63H-11L122 244L73 420H173Z"  />
<glyph unicode="&#x20AC;" horiz-adv-x="467" d="M235 -12Q141 -12 92 48T43 211V223H9L27 306H50Q54 333 62 363H39L58 446H86Q102 492 126 534T181 608T251 659T339 678Q389 678 423 660T477 611T507 544T518 469L378 442Q377 463 375 481T367 514T353 536T331 544Q305 544 284 516T245 446H337L318 363H219Q215 349 212 335T207 306H306L287 223H197V208Q197 162 208 142T242 122Q284 122 321 202L442 152Q407 75 358 32T235 -12Z"  />
<glyph unicode="&#x2122;" horiz-adv-x="374" d="M356 447L396 629L301 447H293L278 629L238 447H210L258 667H301L311 510L389 667H432L384 447H356ZM175 641L132 447H104L147 641H105L110 667H222L217 641H175Z"  />


</font>
</defs>
</svg>
